<svg width="381" height="221" viewBox="0 0 381 221" fill="none" xmlns="http://www.w3.org/2000/svg">
<path d="M281.915 87.7765C221.926 75.889 163.137 62.3128 114.342 34.1515C38.4964 -9.62185 -37.8968 129.349 35.4602 108.995C239.126 52.4853 241.597 219.361 316.662 191.834C391.717 164.311 411.641 113.483 281.915 87.7765Z" fill="white"/>
<path d="M258 23.0776L217.774 44.3315L185.577 51.3903L153.072 44.3315L113 23L126.821 87.1497L113.695 123.142L159.712 151.842L185.268 179.767V180L185.423 179.845L185.577 180V179.767L211.134 151.842L257.305 123.142L244.179 87.2273L258 23.0776Z" fill="url(#paint0_linear)"/>
<circle cx="301.5" cy="58.5" r="9.5" fill="url(#paint1_linear)"/>
<circle cx="258" cy="102" r="34" fill="url(#paint2_linear)"/>
<circle cx="94.5" cy="84.5" r="17.5" fill="url(#paint3_linear)"/>
<defs>
<linearGradient id="paint0_linear" x1="272.617" y1="242.673" x2="95.7522" y2="13.41" gradientUnits="userSpaceOnUse">
<stop stop-color="#315EFB"/>
<stop offset="1" stop-color="#315EFB" stop-opacity="0"/>
</linearGradient>
<linearGradient id="paint1_linear" x1="312.915" y1="75.5847" x2="292" y2="46.2292" gradientUnits="userSpaceOnUse">
<stop stop-color="#315EFB"/>
<stop offset="1" stop-color="#315EFB" stop-opacity="0"/>
</linearGradient>
<linearGradient id="paint2_linear" x1="298.855" y1="163.145" x2="224" y2="58.0833" gradientUnits="userSpaceOnUse">
<stop stop-color="#28BC00"/>
<stop offset="1" stop-color="#28BC00" stop-opacity="0"/>
</linearGradient>
<linearGradient id="paint3_linear" x1="113.45" y1="95.5969" x2="67.0278" y2="92.7225" gradientUnits="userSpaceOnUse">
<stop stop-color="#DADAFF"/>
<stop offset="1" stop-color="#EEEEFF" stop-opacity="0"/>
</linearGradient>
</defs>
</svg>
