<svg width="121" height="24" viewBox="0 0 121 24" fill="none" xmlns="http://www.w3.org/2000/svg">
<path fill-rule="evenodd" clip-rule="evenodd" d="M28.8793 15.2922V4.86709H30.6253C31.3482 4.86709 32.0293 4.99586 32.6687 5.2534C33.308 5.51093 33.866 5.87258 34.342 6.33807C34.8182 6.80356 35.1951 7.35472 35.4729 7.99181C35.7506 8.62917 35.8896 9.32727 35.8896 10.0864C35.8896 10.8003 35.7683 11.4603 35.5259 12.0657C35.2832 12.6714 34.9481 13.1976 34.5205 13.6452C34.0927 14.0925 33.5925 14.4539 33.0192 14.7296C32.446 15.0053 31.829 15.1702 31.1676 15.2244C30.9736 15.2426 30.7793 15.2582 30.5855 15.2719C30.3915 15.2854 30.1932 15.2922 29.9903 15.2922H28.8793ZM40.6254 12.8315C40.8635 11.9685 40.9826 11.058 40.9826 10.0998C40.9826 9.1509 40.8613 8.24251 40.6189 7.37488C40.3762 6.50724 40.0368 5.69854 39.6003 4.94826C39.1639 4.19823 38.6368 3.52038 38.0198 2.91469C37.4025 2.30927 36.7214 1.78952 35.9762 1.35571C35.231 0.921892 34.4288 0.587768 33.5688 0.352557C32.7091 0.117605 31.8162 0 30.8904 0H24.3695C24.1666 0 24.0147 0.0589325 23.9133 0.176278C23.8118 0.293884 23.7614 0.447576 23.7614 0.637354V19.576C23.7614 19.8112 23.8229 19.9646 23.9463 20.0368C24.0699 20.1092 24.211 20.1453 24.3695 20.1453H30.8904C31.8162 20.1453 32.7111 20.0301 33.5756 19.7998C34.4396 19.5692 35.2441 19.2419 35.9893 18.8169C36.7345 18.3921 37.4134 17.8768 38.0264 17.2714C38.6391 16.666 39.1659 15.9902 39.6069 15.2446C40.0477 14.499 40.3873 13.6947 40.6254 12.8315ZM61.1001 19.5827C61.1531 19.4428 61.1794 19.2959 61.1794 19.1422V3.86383C61.1794 3.70131 61.1531 3.55671 61.1001 3.43002C61.0472 3.30358 60.9588 3.19065 60.8357 3.09122C60.7384 2.99179 60.6239 2.92844 60.4917 2.90144C60.3595 2.87418 60.2447 2.86068 60.1477 2.86068H58.1771C58.0005 2.86068 57.864 2.8721 57.767 2.89443C57.67 2.91728 57.5884 2.96219 57.5223 3.03021C57.4562 3.09797 57.3944 3.20181 57.3371 3.34201C57.2796 3.4822 57.2069 3.66497 57.1188 3.89109L56.7353 5.12478C56.4972 4.77222 56.2196 4.44459 55.9019 4.14162C55.5846 3.83891 55.2294 3.57903 54.8371 3.36226C54.4447 3.14548 54.0126 2.97361 53.5409 2.84718C53.0693 2.72075 52.5599 2.6574 52.0133 2.6574C50.8139 2.6574 49.6898 2.8856 48.6404 3.34201C47.591 3.79841 46.6783 4.42642 45.9025 5.22629C45.1264 6.02616 44.5136 6.96623 44.0638 8.04597C43.6142 9.12622 43.3893 10.2945 43.3893 11.5505C43.3893 12.3821 43.4906 13.1796 43.6935 13.9431C43.8964 14.7072 44.1851 15.4188 44.56 16.0784C44.9346 16.7381 45.382 17.3371 45.9025 17.8747C46.4228 18.4126 47.0023 18.8735 47.6419 19.2574C48.281 19.6417 48.9689 19.9376 49.7052 20.1453C50.4413 20.3533 51.2109 20.4574 52.0133 20.4574C52.4629 20.4574 52.8971 20.4008 53.316 20.2878C53.7347 20.1746 54.1273 20.0259 54.4933 19.8405C54.8591 19.6552 55.1942 19.4451 55.4984 19.2099C55.8026 18.9752 56.0739 18.7356 56.312 18.4916L56.4838 19.1014C56.5367 19.2554 56.5876 19.3976 56.636 19.5285C56.6844 19.6596 56.7439 19.7704 56.8146 19.8608C56.885 19.9511 56.9777 20.0212 57.0924 20.0708C57.2069 20.1206 57.3569 20.1453 57.542 20.1453H60.1477C60.2447 20.1453 60.3595 20.1318 60.4917 20.1048C60.6239 20.0776 60.7384 20.0145 60.8357 19.915C60.9588 19.8335 61.0472 19.7229 61.1001 19.5827ZM48.1508 11.5504C48.1508 12.1467 48.241 12.7049 48.4218 13.2246C48.6027 13.7444 48.8606 14.194 49.1957 14.5736C49.5308 14.9532 49.9343 15.2538 50.4059 15.475C50.8776 15.6967 51.4001 15.807 51.9733 15.807C52.564 15.807 53.1129 15.6967 53.62 15.475C54.1271 15.2538 54.5679 14.9532 54.9428 14.5736C55.3174 14.194 55.6107 13.7444 55.8225 13.2246C56.034 12.7049 56.1398 12.1467 56.1398 11.5504C56.1398 10.972 56.034 10.4205 55.8225 9.89638C55.6107 9.37248 55.3174 8.9114 54.9428 8.51367C54.5679 8.11594 54.1271 7.80207 53.62 7.57153C53.1129 7.34099 52.564 7.22572 51.9733 7.22572C51.4001 7.22572 50.8776 7.34099 50.4059 7.57153C49.9343 7.80207 49.5308 8.11594 49.1957 8.51367C48.8606 8.9114 48.6027 9.37248 48.4218 9.89638C48.241 10.4205 48.1508 10.972 48.1508 11.5504ZM69.4198 19.2461V23.5651C69.4198 23.8052 69.2299 24 68.9956 24H64.7784C64.5438 24 64.3539 23.8052 64.3539 23.5651V3.86371C64.3539 3.68302 64.387 3.534 64.4532 3.4164C64.5193 3.29905 64.6008 3.19053 64.6978 3.0911C64.8123 2.99167 64.9314 2.92832 65.055 2.90132C65.1783 2.87406 65.2974 2.86056 65.4121 2.86056H67.4094C67.5768 2.86056 67.7156 2.88782 67.8261 2.94208C67.9363 2.99608 68.0264 3.07085 68.0971 3.16561C68.1678 3.26063 68.227 3.36889 68.2757 3.49091C68.3241 3.61293 68.3704 3.74637 68.4147 3.89097L68.7126 4.77081C68.8236 5.09844 69.2448 5.1688 69.4505 4.89361C69.5391 4.77496 69.6283 4.65528 69.7175 4.53482C69.9687 4.19602 70.2663 3.88864 70.6103 3.61293C70.9543 3.33722 71.3641 3.10927 71.8403 2.92832C72.3165 2.74763 72.8986 2.65729 73.5863 2.65729C74.7943 2.65729 75.9076 2.88549 76.9261 3.34189C77.9446 3.79829 78.822 4.4263 79.5583 5.22617C80.2944 6.02605 80.8699 6.96611 81.2843 8.04611C81.6987 9.12611 81.9059 10.2944 81.9059 11.5504C81.9059 12.7976 81.6987 13.9635 81.2843 15.0479C80.8699 16.1326 80.2944 17.0747 79.5583 17.8746C78.822 18.6745 77.9446 19.3048 76.9261 19.7659C75.9076 20.2267 74.7943 20.4573 73.5863 20.4573C73.0129 20.4573 72.5192 20.3872 72.105 20.247C71.6904 20.107 71.3223 19.924 71.0004 19.6981C70.6785 19.4723 70.3943 19.2236 70.1473 18.9523C69.8872 18.6664 69.4198 18.8552 69.4198 19.2461ZM69.0503 11.347C69.0766 10.7868 69.2068 10.258 69.4406 9.7608C69.6739 9.2639 69.9784 8.83216 70.3532 8.4661C70.7279 8.1003 71.1643 7.81109 71.6625 7.59873C72.1608 7.38636 72.6876 7.27992 73.2431 7.27992C73.8075 7.27992 74.3232 7.39311 74.7908 7.61898C75.2581 7.84484 75.6591 8.15223 75.9944 8.54061C76.3293 8.92951 76.5897 9.38358 76.7749 9.90307C76.96 10.4231 77.0525 10.9722 77.0525 11.5503C77.0525 12.1469 76.96 12.7074 76.7749 13.2313C76.5897 13.7558 76.3293 14.2098 75.9944 14.5938C75.6591 14.978 75.2581 15.2831 74.7908 15.5089C74.3232 15.7348 73.8075 15.8477 73.2431 15.8477C72.6699 15.8477 72.1276 15.7348 71.6162 15.5089C71.1048 15.2831 70.6595 14.978 70.2803 14.5938C69.9011 14.2098 69.6012 13.7558 69.3811 13.2313C69.1605 12.7074 69.0503 12.1469 69.0503 11.5503V11.347ZM89.6171 19.2332V23.5703C89.6171 23.8076 89.4294 24 89.1979 24H84.9706C84.7391 24 84.5511 23.8076 84.5511 23.5703V3.86371C84.5511 3.68302 84.5843 3.534 84.6504 3.4164C84.7165 3.29905 84.7981 3.19053 84.8951 3.0911C85.0096 2.99167 85.1286 2.92832 85.2523 2.90132C85.3756 2.87406 85.4947 2.86056 85.6094 2.86056H87.6067C87.7741 2.86056 87.9129 2.88782 88.0233 2.94208C88.1335 2.99608 88.2237 3.07085 88.2944 3.16561C88.365 3.26063 88.4243 3.36889 88.4729 3.49091C88.5213 3.61293 88.5677 3.74637 88.612 3.89097L88.9129 4.7799C89.0226 5.10363 89.4388 5.17295 89.6422 4.90088C89.7326 4.7799 89.8235 4.65788 89.9147 4.53482C90.166 4.19602 90.4636 3.88864 90.8076 3.61293C91.1516 3.33722 91.5614 3.10927 92.0376 2.92832C92.5138 2.74763 93.0959 2.65729 93.7836 2.65729C94.9916 2.65729 96.1048 2.88549 97.1233 3.34189C98.1418 3.79829 99.0193 4.4263 99.7556 5.22617C100.492 6.02605 101.067 6.96611 101.482 8.04611C101.896 9.12611 102.103 10.2944 102.103 11.5504C102.103 12.7976 101.896 13.9635 101.482 15.0479C101.067 16.1326 100.492 17.0747 99.7556 17.8746C99.0193 18.6745 98.1418 19.3048 97.1233 19.7659C96.1048 20.2267 94.9916 20.4573 93.7836 20.4573C93.2101 20.4573 92.7165 20.3872 92.3023 20.247C91.8877 20.107 91.5196 19.924 91.1977 19.6981C90.8757 19.4723 90.5915 19.2236 90.3446 18.9523C90.342 18.9497 90.3395 18.9468 90.3372 18.9442C90.0796 18.661 89.6171 18.8461 89.6171 19.2332ZM89.2466 11.347C89.2729 10.7868 89.4031 10.258 89.6369 9.7608C89.8702 9.2639 90.1747 8.83216 90.5496 8.4661C90.9242 8.1003 91.3606 7.81109 91.8589 7.59873C92.3571 7.38636 92.884 7.27992 93.4394 7.27992C94.0038 7.27992 94.5195 7.39311 94.9871 7.61898C95.4544 7.84484 95.8554 8.15223 96.1908 8.54061C96.5256 8.92951 96.786 9.38358 96.9712 9.90307C97.1563 10.4231 97.2488 10.9722 97.2488 11.5503C97.2488 12.1469 97.1563 12.7074 96.9712 13.2313C96.786 13.7558 96.5256 14.2098 96.1908 14.5938C95.8554 14.978 95.4544 15.2831 94.9871 15.5089C94.5195 15.7348 94.0038 15.8477 93.4394 15.8477C92.8662 15.8477 92.3239 15.7348 91.8125 15.5089C91.3011 15.2831 90.8558 14.978 90.4766 14.5938C90.0974 14.2098 89.7975 13.7558 89.5774 13.2313C89.3568 12.7074 89.2466 12.1469 89.2466 11.5503V11.347ZM107.983 23.4411L109.188 20.2296C109.225 20.132 109.224 20.0235 109.185 19.9267L102.936 4.22985C102.795 3.86847 102.793 3.55875 102.93 3.30121C103.066 3.04367 103.368 2.9149 103.836 2.9149H107.103C107.323 2.9149 107.504 2.985 107.645 3.12493C107.786 3.26512 107.892 3.43906 107.962 3.64676L111.323 13.4446C111.449 13.8122 111.957 13.8104 112.081 13.442L115.369 3.64676C115.466 3.3578 115.59 3.16361 115.74 3.06392C115.89 2.96475 116.097 2.9149 116.361 2.9149H119.761C120.007 2.9149 120.201 2.94865 120.343 3.01641C120.484 3.08417 120.583 3.17478 120.64 3.28771C120.698 3.40064 120.717 3.52733 120.7 3.66727C120.682 3.80746 120.647 3.94505 120.594 4.08057C120.259 4.93029 119.893 5.85893 119.496 6.8665C119.099 7.87432 118.687 8.92265 118.26 10.0117C117.832 11.1008 117.397 12.2081 116.957 13.3332C116.516 14.4584 116.086 15.5631 115.667 16.6477C115.248 17.7322 114.845 18.774 114.457 19.7725C114.069 20.7709 113.714 21.6884 113.392 22.5246C113.225 22.9582 113.07 23.3616 112.926 23.7396C112.866 23.8972 112.719 24 112.553 24H108.357C108.075 24 107.881 23.7106 107.983 23.4411Z" fill="#1F2431"/>
<path fill-rule="evenodd" clip-rule="evenodd" d="M2.8512 8.64014C4.42595 8.64014 5.70253 7.35072 5.70253 5.76013C5.70253 4.16955 4.42595 2.88013 2.8512 2.88013C1.27646 2.88013 -0.00012207 4.16955 -0.00012207 5.76013C-0.00012207 7.35072 1.27646 8.64014 2.8512 8.64014Z" fill="#315EFB"/>
<path fill-rule="evenodd" clip-rule="evenodd" d="M12.3558 18.24C13.9306 18.24 15.2072 16.9506 15.2072 15.36C15.2072 13.7694 13.9306 12.48 12.3558 12.48C10.7811 12.48 9.50452 13.7694 9.50452 15.36C9.50452 16.9506 10.7811 18.24 12.3558 18.24Z" fill="#315EFB"/>
<path fill-rule="evenodd" clip-rule="evenodd" d="M12.283 3.84034C10.6678 3.84034 9.35852 5.16283 9.35852 6.79419C9.35852 8.42556 10.6678 9.74805 12.283 9.74805C13.8981 9.74805 15.2074 8.42556 15.2074 6.79419C15.2074 5.16283 13.8981 3.84034 12.283 3.84034Z" fill="#315EFB"/>
<path fill-rule="evenodd" clip-rule="evenodd" d="M2.9248 13.2925C1.30968 13.2925 0.000366688 14.615 0.000366688 16.2463C0.000366688 17.8777 1.30968 19.2002 2.9248 19.2002C4.53993 19.2002 5.84924 17.8777 5.84924 16.2463C5.84924 14.615 4.53993 13.2925 2.9248 13.2925Z" fill="#315EFB"/>
</svg>
