<svg width="366" height="198" viewBox="0 0 366 198" fill="none" xmlns="http://www.w3.org/2000/svg">
<path d="M39.3106 91.3364C120.846 68.979 192.107 21.8337 263.257 16.6221C380.598 8.02698 404.968 91.3363 296.921 91.3364C258.425 91.3364 246.187 198 133.351 198C34.8087 198 -53.6544 116.828 39.3106 91.3364Z" fill="white"/>
<ellipse cx="175.302" cy="52.6147" rx="52.603" ry="52.6145" fill="url(#paint0_linear)"/>
<ellipse cx="129.603" cy="129.386" rx="52.603" ry="52.6145" fill="url(#paint1_linear)"/>
<circle cx="231.5" cy="43.5" r="18.5" fill="url(#paint2_linear)"/>
<ellipse cx="220.397" cy="129.386" rx="52.603" ry="52.6145" fill="url(#paint3_linear)"/>
<circle cx="81" cy="107" r="12" fill="url(#paint4_linear)"/>
<defs>
<linearGradient id="paint0_linear" x1="238.511" y1="147.236" x2="122.666" y2="-15.3218" gradientUnits="userSpaceOnUse">
<stop stop-color="#315EFB"/>
<stop offset="1" stop-color="#315EFB" stop-opacity="0"/>
</linearGradient>
<linearGradient id="paint1_linear" x1="192.811" y1="224.007" x2="76.9664" y2="61.4493" gradientUnits="userSpaceOnUse">
<stop stop-color="#28BC00"/>
<stop offset="1" stop-color="#28BC00" stop-opacity="0"/>
</linearGradient>
<linearGradient id="paint2_linear" x1="253.73" y1="76.7701" x2="213" y2="19.6041" gradientUnits="userSpaceOnUse">
<stop stop-color="#28BC00"/>
<stop offset="1" stop-color="#28BC00" stop-opacity="0"/>
</linearGradient>
<linearGradient id="paint3_linear" x1="277.359" y1="162.749" x2="137.819" y2="154.111" gradientUnits="userSpaceOnUse">
<stop stop-color="#DADAFF"/>
<stop offset="1" stop-color="#EEEEFF" stop-opacity="0"/>
</linearGradient>
<linearGradient id="paint4_linear" x1="93.9945" y1="114.609" x2="62.1619" y2="112.638" gradientUnits="userSpaceOnUse">
<stop stop-color="#DADAFF"/>
<stop offset="1" stop-color="#EEEEFF" stop-opacity="0"/>
</linearGradient>
</defs>
</svg>
