<svg width="402" height="145" viewBox="0 0 402 145" fill="none" xmlns="http://www.w3.org/2000/svg">
<path d="M340.167 21.2943C304.699 12.221 261.497 25.0749 244.33 32.6359C141.775 53.2189 133.714 14.1533 60.269 12.053C-13.1764 9.95267 -4.66745 70.8615 9.66335 95.645C23.9941 120.429 60.7168 85.1435 89.3784 83.4633C118.04 81.783 121.175 125.889 187.007 112.447C252.839 99.0055 249.704 106.567 318.671 112.447C387.638 118.328 401.073 77.1624 401.969 59.9399C402.865 42.7174 384.503 32.6359 340.167 21.2943Z" fill="white"/>
<circle cx="123.5" cy="44.4998" r="26.5" fill="url(#paint0_linear)"/>
<circle cx="197.5" cy="72.4998" r="72.5" fill="url(#paint1_linear)"/>
<circle cx="278" cy="94.9998" r="42" fill="url(#paint2_linear)"/>
<circle cx="96.9999" cy="64.9998" r="15" fill="url(#paint3_linear)"/>
<defs>
<linearGradient id="paint0_linear" x1="155.343" y1="92.157" x2="96.9999" y2="10.2706" gradientUnits="userSpaceOnUse">
<stop stop-color="#315EFB"/>
<stop offset="1" stop-color="#315EFB" stop-opacity="0"/>
</linearGradient>
<linearGradient id="paint1_linear" x1="284.617" y1="202.883" x2="125" y2="-21.1461" gradientUnits="userSpaceOnUse">
<stop stop-color="#28BC00"/>
<stop offset="1" stop-color="#28BC00" stop-opacity="0"/>
</linearGradient>
<linearGradient id="paint2_linear" x1="323.48" y1="121.632" x2="212.067" y2="114.734" gradientUnits="userSpaceOnUse">
<stop stop-color="#DADAFF"/>
<stop offset="1" stop-color="#EEEEFF" stop-opacity="0"/>
</linearGradient>
<linearGradient id="paint3_linear" x1="113.243" y1="74.5113" x2="73.4523" y2="72.0476" gradientUnits="userSpaceOnUse">
<stop stop-color="#DADAFF"/>
<stop offset="1" stop-color="#EEEEFF" stop-opacity="0"/>
</linearGradient>
</defs>
</svg>
